<svg width="14" height="10" viewBox="0 0 14 10" fill="none" xmlns="http://www.w3.org/2000/svg">
<path d="M5.37973 9.27956C5.24846 9.27983 5.11843 9.25417 4.99711 9.20406C4.87578 9.15395 4.76555 9.08038 4.67273 8.98756L0.430726 4.74456C0.335153 4.65238 0.258894 4.54209 0.206401 4.42013C0.153907 4.29816 0.12623 4.16696 0.124983 4.03418C0.123736 3.9014 0.148945 3.76971 0.199139 3.64678C0.249333 3.52385 0.323507 3.41214 0.417332 3.31819C0.511158 3.22423 0.622756 3.1499 0.745615 3.09953C0.868475 3.04916 1.00013 3.02377 1.13291 3.02482C1.26569 3.02588 1.39693 3.05337 1.51897 3.1057C1.64101 3.15802 1.75141 3.23412 1.84373 3.32956L5.37873 6.86456L11.7437 0.501562C11.9312 0.313921 12.1856 0.208453 12.4509 0.208359C12.7161 0.208265 12.9706 0.313553 13.1582 0.501061C13.3459 0.68857 13.4513 0.942938 13.4514 1.20821C13.4515 1.47348 13.3462 1.72792 13.1587 1.91556L6.08673 8.98756C5.9939 9.08038 5.88367 9.15395 5.76234 9.20406C5.64102 9.25417 5.51099 9.27983 5.37973 9.27956Z" fill="#2FAB73"/>
</svg>
